<svg width="1417" height="918" viewBox="0 0 1417 918" fill="none" xmlns="http://www.w3.org/2000/svg">
<path fill-rule="evenodd" clip-rule="evenodd" d="M391.544 75.2785C372.695 88.4289 352.209 100.328 326.83 107.833C301.777 115.242 272.172 119.344 241.309 122.377C226.842 123.799 212.092 124.987 197.399 126.17L197.399 126.17L197.399 126.17L197.399 126.17L197.397 126.17L194.455 126.407C178.789 127.67 163.214 128.944 148.134 130.51C117.969 133.643 89.8186 137.939 66.9215 145.62C44.019 153.301 26.4525 164.343 17.345 180.909C-21.2984 251.205 5.42356 364.617 131.244 463.036C193.856 512.014 274.749 539.111 360.053 563.527C374.465 567.651 389.002 571.7 403.598 575.764C475.365 595.749 548.539 616.126 615.052 647.918C673.232 675.725 722.264 712.001 770.604 747.764C777.069 752.546 783.521 757.32 789.981 762.063C844.761 802.281 900.116 840.307 968.446 863.166C1043.36 888.239 1121.04 905.862 1190.65 912.852C1260.27 919.843 1321.76 916.188 1364.34 898.763C1385.17 890.24 1397.35 877.558 1403.98 862.18C1410.62 846.781 1411.71 828.632 1410.27 809.149C1409.08 793.112 1406.18 776.218 1403.27 759.253C1402.65 755.607 1402.02 751.957 1401.41 748.312C1397.96 727.726 1395.04 707.293 1395.72 688.513C1396.36 670.861 1399.94 653.958 1403.87 637.234C1404.44 634.842 1405.01 632.453 1405.57 630.067L1405.6 629.979C1409 615.701 1412.38 601.496 1414.16 586.96C1418.29 553.023 1413.61 517.301 1379.57 475.008C1344.95 431.983 1290.54 392.848 1229.17 355.052C1198.5 336.157 1166.09 317.605 1133.57 299.072L1131.73 298.018L1126.72 295.167L1126.72 295.164C1096.48 277.937 1066.23 260.707 1037.29 243.223C1001.9 221.844 966.79 198.225 931.64 174.372C928.368 172.152 925.096 169.929 921.824 167.707C889.932 146.047 857.981 124.347 825.715 104.091C754.559 59.4205 681.917 21.8032 605.122 7.1722C566.675 -0.153092 536.414 0.603819 511.07 6.31024C485.726 12.0166 465.27 22.6787 446.438 35.2045C437.02 41.4689 428.011 48.1975 418.997 55.0073C418.004 55.7576 417.01 56.5089 416.017 57.2607C407.993 63.3297 399.928 69.4294 391.544 75.2785ZM510.85 5.33466C536.35 -0.406861 566.752 -1.15644 605.309 6.18987C682.29 20.8562 755.059 58.5535 826.247 103.244C858.529 123.51 890.495 145.221 922.384 166.879C925.657 169.102 928.929 171.324 932.201 173.544C967.352 197.398 1002.44 221.003 1037.81 242.367C1066.74 259.845 1096.97 277.068 1127.21 294.297L1127.22 294.298L1127.22 294.299L1127.22 294.3L1127.22 294.301L1130.82 296.351L1134.07 298.203C1166.59 316.735 1199 335.296 1229.7 354.201C1291.08 392.004 1345.62 431.213 1380.35 474.381C1414.58 516.905 1419.31 552.903 1415.15 587.081C1413.37 601.677 1409.97 615.944 1406.57 630.22L1406.57 630.221L1406.55 630.276L1406.54 630.319C1405.98 632.699 1405.41 635.08 1404.85 637.463C1400.92 654.18 1397.36 671.003 1396.72 688.549C1396.04 707.217 1398.95 727.56 1402.4 748.147C1403 751.78 1403.63 755.421 1404.25 759.061L1404.25 759.066C1407.17 776.032 1410.08 792.986 1411.27 809.075C1412.72 828.621 1411.63 846.96 1404.9 862.576C1398.16 878.215 1385.77 891.075 1364.72 899.688C1321.91 917.207 1260.22 920.843 1190.55 913.847C1120.85 906.849 1043.1 889.207 968.129 864.114C899.64 841.202 844.177 803.093 789.39 762.869C782.926 758.123 776.472 753.349 770.007 748.566L770.005 748.564C721.659 712.798 672.708 676.583 614.621 648.82C548.194 617.069 475.122 596.72 403.355 576.735L403.345 576.732L403.339 576.73L403.336 576.73C388.74 572.665 374.199 568.615 359.778 564.488C274.476 540.073 193.41 512.935 130.628 463.824C4.62862 365.265 -22.5185 251.348 16.4686 180.428C25.753 163.539 43.6022 152.387 66.6035 144.671C89.6102 136.954 117.852 132.65 148.031 129.516C163.124 127.948 178.709 126.673 194.374 125.41L197.314 125.173L197.314 125.173H197.314C212.01 123.99 226.753 122.803 241.211 121.382C272.062 118.35 301.588 114.255 326.547 106.874C351.784 99.411 372.171 87.575 390.972 74.4583C399.339 68.6213 407.387 62.5339 415.412 56.4639L415.413 56.4635L415.414 56.4629C416.407 55.7113 417.401 54.96 418.394 54.2094C427.409 47.3993 436.439 40.6546 445.884 34.3719C464.78 21.8036 485.349 11.0763 510.85 5.33466ZM430.035 118.216C413.267 129.899 395.04 140.473 372.459 147.142C350.171 153.725 323.835 157.368 296.384 160.063C283.516 161.326 270.396 162.381 257.328 163.431L257.326 163.432L254.709 163.642C240.775 164.764 226.923 165.896 213.512 167.287C186.682 170.07 161.65 173.885 141.291 180.705C120.926 187.526 105.318 197.328 97.2271 212.025C62.8757 274.431 86.618 375.137 198.518 462.547C254.197 506.04 326.136 530.105 402.008 551.792C414.819 555.454 427.742 559.048 440.717 562.656L440.717 562.656L440.718 562.657L440.718 562.657C504.556 580.411 569.652 598.514 628.821 626.761C680.579 651.464 724.199 683.69 767.199 715.459L767.214 715.47C772.953 719.71 778.681 723.943 784.416 728.147C833.138 763.87 882.365 797.642 943.129 817.949C1009.76 840.214 1078.85 855.865 1140.75 862.073C1202.68 868.283 1257.36 865.039 1295.22 849.571C1313.74 842.003 1324.56 830.746 1330.45 817.101C1336.35 803.434 1337.32 787.324 1336.04 770.022C1334.98 755.784 1332.4 740.784 1329.81 725.719C1329.25 722.477 1328.7 719.231 1328.15 715.99C1325.09 697.705 1322.49 679.55 1323.09 662.861C1323.66 647.177 1326.85 632.158 1330.34 617.303C1330.85 615.155 1331.36 613.011 1331.87 610.868L1331.88 610.849L1331.88 610.847C1334.9 598.168 1337.91 585.557 1339.49 572.653C1343.16 542.522 1339.01 510.808 1308.76 473.256C1277.97 435.048 1229.57 400.291 1174.99 366.72C1147.71 349.937 1118.89 333.459 1089.96 316.997C1087.94 315.844 1085.91 314.69 1083.88 313.536L1083.88 313.534L1083.88 313.533L1083.87 313.531L1083.87 313.529C1056.97 298.226 1030.07 282.921 1004.32 267.389C972.845 248.399 941.616 227.419 910.352 206.232C907.44 204.258 904.528 202.283 901.616 200.308L901.613 200.306L901.605 200.3C873.244 181.065 844.832 161.795 816.14 143.807C752.853 104.13 688.25 70.7216 619.957 57.7279C585.767 51.2226 558.859 51.8954 536.326 56.9623C513.793 62.0291 495.605 71.4961 478.859 82.62C470.484 88.1834 462.472 94.1592 454.454 100.208C453.571 100.875 452.688 101.542 451.804 102.21L451.803 102.21C444.667 107.601 437.493 113.02 430.035 118.216ZM536.107 55.9866C558.796 50.8848 585.844 50.2193 620.144 56.7455C688.622 69.7745 753.352 103.263 816.671 142.96C845.383 160.96 873.814 180.244 902.177 199.48L902.222 199.511C905.12 201.476 908.017 203.441 910.913 205.404C942.178 226.592 973.387 247.558 1004.84 266.533C1030.58 282.06 1057.47 297.362 1084.38 312.669C1086.41 313.822 1088.43 314.975 1090.46 316.128C1119.38 332.589 1148.21 349.076 1175.52 365.868C1230.11 399.447 1278.63 434.278 1309.54 472.629L1309.15 472.943L1309.54 472.629C1339.98 510.411 1344.19 542.402 1340.48 572.775C1338.9 585.741 1335.87 598.415 1332.85 611.094C1332.33 613.239 1331.82 615.385 1331.32 617.532C1327.82 632.381 1324.66 647.319 1324.09 662.898C1323.49 679.474 1326.07 697.539 1329.14 715.824C1329.68 719.055 1330.24 722.294 1330.79 725.532C1333.38 740.599 1335.97 755.657 1337.03 769.948C1338.32 787.313 1337.36 803.613 1331.37 817.497C1325.36 831.404 1314.34 842.838 1295.6 850.496C1257.51 866.057 1202.63 869.283 1140.66 863.068C1078.66 856.851 1009.5 841.182 942.812 818.897C881.889 798.537 832.554 764.682 783.825 728.954C778.092 724.751 772.368 720.522 766.635 716.286L766.627 716.28L766.618 716.274L766.61 716.268L766.602 716.262C723.596 684.489 680.056 652.322 628.39 627.664C569.307 599.458 504.312 581.381 440.474 563.627C427.493 560.017 414.56 556.42 401.733 552.753C325.864 531.067 253.751 506.961 197.902 463.335C85.8238 375.786 61.6549 274.575 96.351 211.542C104.618 196.524 120.51 186.611 140.973 179.757C161.442 172.9 186.566 169.076 213.408 166.292C226.833 164.9 240.696 163.767 254.629 162.645L257.246 162.435C270.316 161.384 283.427 160.33 296.286 159.068C323.725 156.374 349.982 152.738 372.176 146.183C394.616 139.555 412.744 129.045 429.463 117.395C436.904 112.211 444.062 106.804 451.201 101.412C452.085 100.744 452.968 100.077 453.852 99.4099C461.87 93.3607 469.903 87.3687 478.306 81.787C495.115 70.6207 513.417 61.0886 536.107 55.9866ZM420.211 187.324C439.853 181.524 455.706 172.329 470.288 162.172C476.773 157.655 483.011 152.944 489.215 148.259L489.248 148.233L489.417 148.106L489.524 148.025C490.19 147.523 490.855 147.02 491.52 146.518C498.491 141.261 505.455 136.067 512.735 131.233C527.29 121.567 543.096 113.342 562.676 108.94C582.257 104.539 605.643 103.953 635.361 109.606C694.725 120.898 750.884 149.932 805.904 184.418C830.856 200.057 855.565 216.812 880.229 233.537L881.074 234.11L881.974 234.72C883.071 235.464 884.167 236.208 885.264 236.951L887.81 238.676C914.99 257.093 942.141 275.329 969.509 291.837C991.891 305.334 1015.28 318.634 1038.66 331.932C1040.43 332.94 1042.2 333.949 1043.97 334.957C1069.12 349.265 1094.18 363.588 1117.9 378.175C1165.35 407.355 1207.42 437.561 1234.18 470.762C1260.48 503.388 1264.08 530.934 1260.89 557.107C1259.52 568.32 1256.91 579.279 1254.27 590.302C1253.83 592.168 1253.38 594.036 1252.94 595.908C1249.9 608.819 1247.13 621.879 1246.64 635.519C1246.11 650.032 1248.37 665.818 1251.03 681.712C1251.5 684.529 1251.99 687.35 1252.47 690.167L1252.47 690.171L1252.47 690.175L1252.48 690.179C1254.73 703.271 1256.97 716.303 1257.88 728.673C1259 743.708 1258.15 757.7 1253.03 769.565C1247.92 781.408 1238.52 791.18 1222.43 797.752C1189.54 811.194 1142.01 814.016 1088.18 808.618C1034.36 803.222 974.293 789.617 916.368 770.262C863.55 752.615 820.757 723.266 778.397 692.218C773.413 688.565 768.434 684.888 763.445 681.203L763.44 681.199L763.434 681.195L763.428 681.191L763.428 681.19L763.427 681.19C726.042 653.578 688.113 625.564 643.107 604.09C591.662 579.54 535.064 563.803 479.566 548.371C468.281 545.234 457.042 542.108 445.9 538.924C379.934 520.073 317.401 499.156 269.003 461.36C171.726 385.393 151.111 297.888 180.955 243.689C187.978 230.935 201.53 222.423 219.23 216.496C236.924 210.571 258.682 207.255 282.007 204.836C293.666 203.627 305.709 202.643 317.824 201.669L320.1 201.486L320.1 201.486L320.101 201.485L320.101 201.485C331.462 200.572 342.869 199.655 354.058 198.557C377.925 196.215 400.827 193.048 420.211 187.324ZM635.547 108.624C605.719 102.95 582.194 103.528 562.457 107.965C542.72 112.402 526.801 120.691 512.182 130.4C504.875 135.253 497.889 140.462 490.918 145.72C490.15 146.3 489.382 146.88 488.613 147.46C482.407 152.147 476.185 156.846 469.716 161.352C455.183 171.475 439.429 180.607 419.928 186.365C400.639 192.061 377.815 195.221 353.96 197.562C342.78 198.659 331.38 199.576 320.015 200.489L317.743 200.672C305.63 201.647 293.576 202.631 281.904 203.842C258.565 206.262 236.716 209.586 218.912 215.548C201.114 221.508 187.279 230.131 180.079 243.206C149.89 298.032 170.932 386.042 268.388 462.148C316.955 500.077 379.663 521.035 445.625 539.886C456.777 543.073 468.022 546.2 479.309 549.338L479.323 549.342L479.324 549.342C534.821 564.774 591.318 580.484 642.676 604.993C687.59 626.422 725.44 654.377 762.832 681.994L762.832 681.994L762.879 682.028L762.894 682.039L762.908 682.05C767.877 685.72 772.838 689.383 777.806 693.025C820.174 724.079 863.074 753.511 916.051 771.211C974.034 790.585 1034.17 804.208 1088.08 809.613C1141.97 815.016 1189.69 812.212 1222.81 798.677C1239.12 792.016 1248.72 782.066 1253.95 769.961C1259.16 757.879 1260 743.697 1258.88 728.599C1257.96 716.174 1255.71 703.082 1253.46 689.987C1252.97 687.171 1252.49 684.356 1252.02 681.547C1249.35 665.652 1247.11 649.956 1247.64 635.555C1248.13 622.021 1250.88 609.043 1253.92 596.137C1254.36 594.271 1254.8 592.406 1255.25 590.541C1257.88 579.521 1260.51 568.502 1261.88 557.228C1265.11 530.814 1261.44 502.991 1234.96 470.135C1208.08 436.791 1165.89 406.511 1118.42 377.323C1094.69 362.726 1069.62 348.396 1044.47 334.088C1042.7 333.08 1040.92 332.072 1039.15 331.064L1039.15 331.063L1039.14 331.057L1039.13 331.05C1015.75 317.756 992.388 304.466 970.026 290.98C942.682 274.488 915.552 256.265 888.371 237.848L886.118 236.321C884.465 235.201 882.812 234.081 881.16 232.96L880.788 232.708L880.786 232.707L880.785 232.706L880.785 232.706C856.124 215.984 831.402 199.219 806.435 183.571C751.383 149.065 695.097 119.951 635.547 108.624ZM507.894 204.085C495.341 212.833 481.691 220.754 464.778 225.75C448.089 230.68 428.374 233.407 407.832 235.424C398.202 236.369 388.384 237.158 378.606 237.945L376.647 238.102C366.221 238.942 355.858 239.789 345.824 240.83C325.751 242.912 307.032 245.766 291.812 250.865C276.587 255.966 264.944 263.287 258.912 274.245C233.255 320.864 250.967 396.171 334.672 461.561C376.313 494.092 430.119 512.096 486.89 528.326C496.469 531.064 506.132 533.751 515.834 536.45L515.852 536.455L515.866 536.459C563.628 549.743 612.34 563.292 656.617 584.428C695.357 602.922 728.006 627.048 760.178 650.822C764.476 653.998 768.766 657.168 773.061 660.318C809.515 687.051 846.334 712.314 891.777 727.503C941.625 744.161 993.31 755.872 1039.62 760.517C1085.95 765.164 1126.84 762.735 1155.15 751.17C1168.97 745.518 1177.05 737.117 1181.44 726.939C1185.84 716.739 1186.57 704.706 1185.61 691.767C1184.82 681.117 1182.89 669.898 1180.95 658.622L1180.95 658.596C1180.53 656.179 1180.12 653.759 1179.71 651.342C1177.42 637.657 1175.47 624.059 1175.92 611.554C1176.35 599.805 1178.74 588.556 1181.35 577.439C1181.73 575.828 1182.11 574.219 1182.5 572.612C1184.76 563.122 1187.01 553.691 1188.19 544.041C1190.93 521.524 1187.83 497.826 1165.22 469.753C1142.2 441.179 1106 415.178 1065.17 390.056C1044.75 377.498 1023.19 365.167 1001.55 352.848C1000.02 351.982 998.502 351.116 996.979 350.25L996.975 350.247L996.973 350.246C976.85 338.797 956.723 327.345 937.46 315.723C913.903 301.51 890.535 285.808 867.142 269.952C864.964 268.476 862.785 266.998 860.606 265.52L860.605 265.519C839.382 251.123 818.122 236.701 796.654 223.24C749.304 193.55 700.981 168.559 649.902 158.839C624.334 153.974 604.219 154.479 587.379 158.266C570.539 162.053 556.945 169.13 544.423 177.449C538.16 181.61 532.168 186.08 526.169 190.607C525.508 191.105 524.847 191.605 524.186 192.104L524.185 192.105C518.846 196.139 513.476 200.195 507.894 204.085ZM587.159 157.29C604.156 153.468 624.411 152.971 650.089 157.857C701.353 167.612 749.803 192.683 797.185 222.393C818.668 235.863 839.941 250.294 861.16 264.688L861.162 264.688L861.166 264.692L861.408 264.855C863.507 266.279 865.605 267.703 867.703 269.125C891.097 284.981 914.445 300.669 937.977 314.867C957.228 326.482 977.345 337.928 997.47 349.379L997.478 349.383C998.999 350.249 1000.52 351.114 1002.04 351.979C1023.68 364.298 1045.26 376.636 1065.69 389.204C1106.54 414.334 1142.86 440.409 1166 469.126C1188.8 497.429 1191.96 521.404 1189.18 544.162C1188 553.873 1185.73 563.364 1183.47 572.851L1183.47 572.854C1183.08 574.458 1182.7 576.063 1182.32 577.668C1179.71 588.779 1177.35 599.946 1176.92 611.591C1176.47 623.983 1178.4 637.491 1180.7 651.176C1181.1 653.592 1181.52 656.014 1181.94 658.436L1181.94 658.438C1183.87 669.714 1185.81 680.991 1186.61 691.693C1187.57 704.695 1186.85 716.917 1182.36 727.335C1177.85 737.774 1169.57 746.353 1155.52 752.095C1127 763.754 1085.91 766.165 1039.52 761.512C993.124 756.858 941.366 745.129 891.46 728.452C845.858 713.209 808.931 687.863 772.47 661.124C768.171 657.972 763.88 654.801 759.581 651.625C727.402 627.846 694.834 603.78 656.186 585.33C611.996 564.236 563.385 550.715 515.625 537.43L515.624 537.43L515.619 537.429C505.901 534.725 496.218 532.032 486.616 529.287C429.847 513.059 375.867 495.012 334.057 462.349C250.173 396.819 232.034 321.008 258.036 273.762C264.244 262.483 276.171 255.051 291.495 249.917C306.824 244.781 325.635 241.919 345.721 239.835C355.768 238.793 366.142 237.945 376.567 237.106L378.526 236.948L378.527 236.948C388.306 236.161 398.115 235.373 407.734 234.428C428.263 232.413 447.9 229.693 464.494 224.791C481.267 219.836 494.818 211.979 507.322 203.265C512.887 199.387 518.241 195.343 523.582 191.307C524.243 190.808 524.905 190.308 525.567 189.808C531.566 185.281 537.579 180.795 543.87 176.616C556.455 168.254 570.163 161.113 587.159 157.29ZM510.939 263.707C525.019 259.547 536.381 252.953 546.826 245.673C551.47 242.436 555.938 239.061 560.379 235.705C560.929 235.289 561.479 234.874 562.029 234.459C567.018 230.693 572 226.977 577.207 223.517C587.617 216.6 598.915 210.719 612.908 207.571C626.903 204.424 643.622 204.004 664.879 208.05C707.347 216.132 747.531 236.914 786.913 261.609C804.774 272.81 822.461 284.809 840.118 296.788L840.425 296.997C842.131 298.154 843.836 299.31 845.541 300.466C864.998 313.655 884.436 326.718 904.03 338.543C920.056 348.212 936.799 357.74 953.537 367.265C954.805 367.986 956.072 368.708 957.34 369.429C975.343 379.677 993.277 389.934 1010.26 400.38C1044.22 421.277 1074.32 442.9 1093.45 466.658C1112.25 489.991 1114.82 509.682 1112.54 528.393C1111.56 536.417 1109.69 544.259 1107.81 552.155C1107.69 552.653 1107.57 553.151 1107.45 553.649C1107.25 554.488 1107.05 555.327 1106.85 556.168C1104.68 565.416 1102.69 574.781 1102.34 584.564C1101.96 594.975 1103.58 606.295 1105.49 617.677C1105.82 619.697 1106.17 621.717 1106.52 623.736L1106.52 623.738C1108.13 633.116 1109.73 642.442 1110.39 651.296C1111.19 662.054 1110.58 672.046 1106.92 680.513C1103.28 688.957 1096.58 695.931 1085.1 700.626C1061.58 710.237 1027.59 712.259 989.064 708.394C950.551 704.531 907.567 694.792 866.108 680.938C828.323 668.305 797.706 647.297 767.385 625.061C763.813 622.441 760.244 619.804 756.669 617.161C729.909 597.386 702.748 577.314 670.519 561.927C633.681 544.339 593.153 533.065 553.426 522.014L553.421 522.012C545.345 519.766 537.302 517.529 529.33 515.249C482.11 501.748 437.371 486.775 402.749 459.724C333.141 405.337 318.444 342.738 339.756 304.009C344.758 294.921 354.419 288.841 367.074 284.6C379.724 280.362 395.287 277.988 411.982 276.256C420.326 275.39 428.945 274.686 437.617 273.987L439.242 273.857L439.246 273.856C447.379 273.202 455.547 272.545 463.557 271.758C480.645 270.081 497.049 267.811 510.939 263.707ZM665.066 207.067C643.699 203 626.839 203.413 612.689 206.596C598.539 209.778 587.128 215.725 576.654 222.684C571.42 226.162 566.416 229.895 561.426 233.661C561.163 233.859 560.9 234.058 560.637 234.256L559.776 234.907C555.333 238.264 550.881 241.628 546.254 244.853C535.857 252.099 524.594 258.63 510.656 262.748C496.861 266.823 480.534 269.087 463.46 270.763C455.457 271.549 447.296 272.205 439.16 272.86L437.537 272.991C428.866 273.689 420.236 274.394 411.878 275.262C395.17 276.995 379.516 279.377 366.757 283.652C354.002 287.926 344.059 294.117 338.88 303.527C317.223 342.882 332.346 405.985 402.133 460.512C436.925 487.695 481.838 502.711 529.055 516.211C537.034 518.492 545.079 520.73 553.152 522.976L553.183 522.985C592.909 534.036 633.336 545.282 670.088 562.829C702.224 578.172 729.306 598.185 756.072 617.964C759.648 620.606 763.218 623.245 766.794 625.867C797.123 648.109 827.847 669.2 865.791 681.886C907.309 695.76 950.366 705.517 988.964 709.389C1027.55 713.259 1061.74 711.255 1085.48 701.551C1097.18 696.766 1104.08 689.615 1107.84 680.909C1111.59 672.225 1112.19 662.043 1111.39 651.222C1110.73 642.315 1109.11 632.929 1107.5 623.549C1107.16 621.535 1106.81 619.521 1106.47 617.512C1104.57 606.129 1102.96 594.9 1103.34 584.6C1103.69 574.922 1105.65 565.639 1107.83 556.396C1107.95 555.874 1108.07 555.352 1108.2 554.829C1108.39 554.018 1108.58 553.207 1108.78 552.397C1110.66 544.503 1112.55 536.6 1113.53 528.514C1115.84 509.562 1113.21 489.595 1094.23 466.031C1074.98 442.13 1044.76 420.433 1010.78 399.528C993.785 389.072 975.837 378.807 957.835 368.56L954.033 366.397C937.293 356.87 920.561 347.349 904.547 337.686C884.978 325.877 865.56 312.828 846.102 299.638C844.295 298.413 842.487 297.187 840.679 295.96C823.024 283.982 805.322 271.973 787.444 260.762C748.03 236.047 707.72 215.185 665.066 207.067Z" fill="url(#paint0_linear_2_28)"/>
<defs>
<linearGradient id="paint0_linear_2_28" x1="708.208" y1="0.854542" x2="708.208" y2="917.192" gradientUnits="userSpaceOnUse">
<stop stop-color="#E1E1E1"/>
<stop offset="1" stop-color="#E1E1E1" stop-opacity="0"/>
</linearGradient>
</defs>
</svg>
